<svg width="130" height="130" viewBox="0 0 130 130" fill="none" xmlns="http://www.w3.org/2000/svg">
<circle cx="65" cy="65" r="65" fill="#356C75"/>
<path d="M78.75 59.7501C78.75 60.17 78.5832 60.5727 78.2862 60.8697C77.9893 61.1666 77.5866 61.3334 77.1666 61.3334H72.8916C72.5112 63.969 71.1946 66.3796 69.1826 68.124C67.1707 69.8685 64.5979 70.8303 61.935 70.8334H56.5833L64.1833 80.9667C64.4353 81.3027 64.5435 81.725 64.4841 82.1407C64.4247 82.5564 64.2026 82.9314 63.8666 83.1834C63.5307 83.4354 63.1084 83.5435 62.6927 83.4842C62.277 83.4248 61.9019 83.2027 61.65 82.8667L52.2925 70.3742C52.0789 70.1492 51.9352 69.8669 51.8787 69.5618C51.8223 69.2567 51.8556 68.9417 51.9746 68.6551C52.0936 68.3686 52.2932 68.1226 52.5491 67.9472C52.8051 67.7718 53.1064 67.6743 53.4166 67.6667H61.935C63.7593 67.6644 65.5271 67.0333 66.9403 65.8796C68.3535 64.7259 69.3258 63.1203 69.6933 61.3334H53.4166C52.9967 61.3334 52.594 61.1666 52.2971 60.8697C52.0001 60.5727 51.8333 60.17 51.8333 59.7501C51.8333 59.3302 52.0001 58.9274 52.2971 58.6305C52.594 58.3336 52.9967 58.1667 53.4166 58.1667H69.6933C69.3258 56.3798 68.3535 54.7742 66.9403 53.6205C65.5271 52.4669 63.7593 51.8357 61.935 51.8334H53.4166C52.9967 51.8334 52.594 51.6666 52.2971 51.3697C52.0001 51.0727 51.8333 50.67 51.8333 50.2501C51.8333 49.8302 52.0001 49.4274 52.2971 49.1305C52.594 48.8336 52.9967 48.6667 53.4166 48.6667H77.1666C77.5866 48.6667 77.9893 48.8336 78.2862 49.1305C78.5832 49.4274 78.75 49.8302 78.75 50.2501C78.75 50.67 78.5832 51.0727 78.2862 51.3697C77.9893 51.6666 77.5866 51.8334 77.1666 51.8334H69.6616C71.4121 53.527 72.5486 55.7554 72.8916 58.1667H77.1666C77.5866 58.1667 77.9893 58.3336 78.2862 58.6305C78.5832 58.9274 78.75 59.3302 78.75 59.7501Z" fill="#FFFDF4"/>
<path d="M64.5 17C55.1054 17 45.9218 19.7858 38.1104 25.0052C30.2991 30.2246 24.2109 37.643 20.6157 46.3225C17.0206 55.002 16.0799 64.5527 17.9127 73.7668C19.7455 82.9809 24.2695 91.4446 30.9124 98.0875C37.5554 104.731 46.0191 109.254 55.2332 111.087C64.4473 112.92 73.998 111.979 82.6775 108.384C91.357 104.789 98.7754 98.7009 103.995 90.8896C109.214 83.0782 112 73.8946 112 64.5C111.986 51.9066 106.977 39.833 98.0718 30.9282C89.167 22.0233 77.0934 17.0142 64.5 17ZM64.5 108.833C55.7317 108.833 47.1603 106.233 39.8697 101.362C32.5792 96.4904 26.8968 89.5665 23.5414 81.4656C20.1859 73.3648 19.3079 64.4508 21.0185 55.851C22.7292 47.2512 26.9515 39.3517 33.1516 33.1516C39.3517 26.9515 47.2512 22.7291 55.851 21.0185C64.4508 19.3079 73.3648 20.1859 81.4656 23.5413C89.5665 26.8968 96.4904 32.5791 101.362 39.8697C106.233 47.1603 108.833 55.7317 108.833 64.5C108.82 76.2538 104.145 87.5224 95.8336 95.8336C87.5224 104.145 76.2538 108.82 64.5 108.833Z" fill="#FFFDF4"/>
<path d="M91.7792 42.8893C92.2162 42.1403 92.4488 41.2896 92.4537 40.4225C92.4537 39.4292 92.1592 38.4583 91.6074 37.6324C91.0556 36.8065 90.2713 36.1628 89.3537 35.7826C88.4361 35.4024 87.4263 35.3029 86.4522 35.4965C85.478 35.6902 84.5831 36.1684 83.8806 36.8706C83.1782 37.5728 82.6997 38.4676 82.5057 39.4417C82.3118 40.4158 82.411 41.4256 82.7909 42.3433C83.1708 43.2611 83.8143 44.0456 84.64 44.5976C85.4657 45.1497 86.4365 45.4445 87.4298 45.4448C88.1189 45.4447 88.8004 45.3013 89.4311 45.0236C93.8871 50.7286 96.2533 57.7884 96.1353 65.0264C96.0174 72.2643 93.4224 79.2433 88.7828 84.8C84.1433 90.3567 77.7395 94.1555 70.6388 95.5632C63.538 96.971 56.1693 95.9027 49.7607 92.5363C49.5762 92.4317 49.3726 92.3653 49.1619 92.341C48.9512 92.3166 48.7378 92.3348 48.5343 92.3945C48.3308 92.4542 48.1414 92.5542 47.9773 92.6885C47.8132 92.8228 47.6777 92.9887 47.5789 93.1764C47.4802 93.3641 47.4201 93.5697 47.4023 93.781C47.3845 93.9923 47.4094 94.2051 47.4754 94.4066C47.5414 94.6082 47.6472 94.7944 47.7866 94.9543C47.9259 95.1141 48.096 95.2443 48.2866 95.3372C55.354 99.0639 63.4882 100.246 71.3239 98.6854C79.1597 97.1247 86.2202 92.916 91.3202 86.7658C96.4203 80.6156 99.2496 72.8983 99.3331 64.909C99.4167 56.9197 96.7495 49.1448 91.7792 42.8893ZM85.5757 40.4225C85.5757 40.0554 85.6846 39.6966 85.8886 39.3914C86.0925 39.0862 86.3824 38.8483 86.7216 38.7079C87.0608 38.5675 87.434 38.5309 87.794 38.6026C88.154 38.6743 88.4846 38.8512 88.7441 39.1109C89.0036 39.3706 89.1802 39.7014 89.2516 40.0614C89.323 40.4215 89.286 40.7947 89.1453 41.1337C89.0046 41.4728 88.7666 41.7625 88.4612 41.9662C88.1558 42.1699 87.7969 42.2785 87.4298 42.2781C86.9379 42.2777 86.4663 42.082 86.1187 41.7341C85.771 41.3861 85.5757 40.9144 85.5757 40.4225Z" fill="#FFFDF4"/>
<path d="M40.4222 83.5554C40.0534 83.5576 39.6859 83.6006 39.3266 83.6837C35.0971 78.1848 32.8132 71.4372 32.8333 64.5C32.843 56.1044 36.1823 48.0555 42.1189 42.1189C48.0555 36.1824 56.1044 32.843 64.5 32.8333C69.1308 32.8211 73.7069 33.8344 77.8997 35.8005C78.2802 35.9785 78.7158 35.9982 79.1107 35.855C79.5056 35.7119 79.8275 35.4178 80.0056 35.0373C80.1836 34.6569 80.2032 34.2213 80.0601 33.8264C79.917 33.4314 79.6228 33.1095 79.2424 32.9315C72.2106 29.6401 64.2804 28.7936 56.7123 30.5265C49.1442 32.2593 42.3724 36.4721 37.4734 42.4953C32.5743 48.5184 29.8291 56.0063 29.674 63.7687C29.5189 71.5311 31.9629 79.1226 36.6175 85.3366C35.8365 86.2363 35.4045 87.3864 35.3999 88.5777C35.3996 89.5715 35.694 90.543 36.2459 91.3695C36.7978 92.1959 37.5824 92.8401 38.5005 93.2205C39.4186 93.6009 40.4288 93.7006 41.4035 93.5068C42.3782 93.313 43.2736 92.8345 43.9763 92.1318C44.679 91.4291 45.1575 90.5337 45.3513 89.559C45.5451 88.5843 45.4454 87.5741 45.065 86.656C44.6846 85.7379 44.0404 84.9533 43.214 84.4014C42.3875 83.8495 41.416 83.5551 40.4222 83.5554ZM40.4222 90.4334C40.0553 90.4331 39.6967 90.324 39.3917 90.1199C39.0868 89.9158 38.8492 89.6259 38.7089 89.2868C38.5687 88.9477 38.5322 88.5746 38.604 88.2147C38.6758 87.8549 38.8526 87.5244 39.1122 87.265C39.3718 87.0057 39.7024 86.8291 40.0624 86.7576C40.4223 86.6861 40.7953 86.723 41.1343 86.8635C41.4733 87.004 41.763 87.2418 41.9668 87.5469C42.1707 87.8521 42.2795 88.2108 42.2795 88.5777C42.2795 88.8216 42.2314 89.063 42.1381 89.2882C42.0447 89.5135 41.9079 89.7181 41.7354 89.8904C41.5629 90.0628 41.3582 90.1994 41.1328 90.2926C40.9075 90.3858 40.666 90.4336 40.4222 90.4334Z" fill="#FFFDF4"/>
</svg>
