<svg width="130" height="130" viewBox="0 0 130 130" fill="none" xmlns="http://www.w3.org/2000/svg">
<circle cx="65" cy="65" r="65" fill="#356C75"/>
<path d="M66 71.5C58.5 71.5 52.5 65 52.5 56.5C52.5 48 58.5 41.5 66 41.5C73.5 41.5 79.5 48 79.5 56.5C79.5 65 73.5 71.5 66 71.5ZM66 46.5C61.5 46.5 57.5 51 57.5 56.5C57.5 62 61 66.5 66 66.5C71 66.5 74.5 62 74.5 56.5C74.5 51 70.5 46.5 66 46.5Z" fill="#FFFDF4"/>
<path d="M71.5 65H72.5C80.5 65 87 71.5 87 79.5V90C87 91.5 86 92.5 84.5 92.5C83 92.5 82 91.5 82 90V79.5C82 74.5 77.5 70 72.5 70H71.5V65Z" fill="#FFFDF4"/>
<path d="M60.5 70H59.5C54.5 70 50 74.5 50 79.5V90C50 91.5 49 92.5 47.5 92.5C46 92.5 45 91.5 45 90V79.5C45 71.5 51.5 65 59.5 65H60.5V70Z" fill="#FFFDF4"/>
<path d="M93.5 61.5C87.5 61.5 82 56 82 49C82 42 87 36.5 93.5 36.5C100 36.5 105 42 105 49C105 56 99.5 61.5 93.5 61.5ZM93.5 41.5C90 41.5 87 45 87 49C87 53 90 56.5 93.5 56.5C97 56.5 100 53 100 49C100 45 97 41.5 93.5 41.5Z" fill="#FFFDF4"/>
<path d="M98 55.5H99C105.5 55.5 111 61 111 67.5V76C111 77.5 110 78.5 108.5 78.5C107 78.5 106 77.5 106 76V67.5C106 63.5 103 60.5 99 60.5H98V55.5Z" fill="#FFFDF4"/>
<path d="M89 60.5H88C84 60.5 81 63.5 81 67.5C81 69 80 70 78.5 70C77 70 76 69 76 67.5C76 61 81.5 55.5 88 55.5H89V60.5Z" fill="#FFFDF4"/>
<path d="M38.5 61.5C32.5 61.5 27 56 27 49C27 42 32 36.5 38.5 36.5C45 36.5 50 42 50 49C50 56 44.5 61.5 38.5 61.5ZM38.5 41.5C35 41.5 32 45 32 49C32 53 35 56.5 38.5 56.5C42 56.5 45 53 45 49C45 45 42 41.5 38.5 41.5Z" fill="#FFFDF4"/>
<path d="M43 55.5H44C50.5 55.5 56 61 56 67.5C56 69 55 70 53.5 70C52 70 51 69 51 67.5C51 63.5 48 60.5 44 60.5H43V55.5Z" fill="#FFFDF4"/>
<path d="M34 60.5H33C29 60.5 26 63.5 26 67.5V76C26 77.5 25 78.5 23.5 78.5C22 78.5 21 77.5 21 76V67.5C21 61 26.5 55.5 33 55.5H34V60.5Z" fill="#FFFDF4"/>
</svg>
